<svg width="61" height="36" viewBox="0 0 61 36" fill="none" xmlns="http://www.w3.org/2000/svg">
<path d="M13.5295 27.871H10.3082C9.52971 30.385 7.81169 32.538 5.15411 34.3299C3.11393 35.2927 1.50328 35.7741 0.322131 35.7741L0 35.6136C0 33.1264 1.44959 30.8664 4.34876 28.8338C5.63729 27.3628 6.28156 25.7046 6.28156 23.8593V13.5491C6.28156 11.57 7.8385 9.75132 10.9525 8.09315L11.1135 8.41409V23.0569H13.5295V27.871ZM25.1426 8.89548C29.8135 8.89548 33.0885 11.356 34.9676 16.2771C35.1823 17.4003 35.2897 18.2696 35.2897 18.8847C35.2897 23.0301 32.9274 26.0791 28.2028 28.0314C26.968 28.3524 25.8942 28.5129 24.9815 28.5129C24.2836 28.5129 22.995 28.2989 21.1159 27.871H12.2573C12.0426 27.871 11.9352 27.764 11.9352 27.55V23.3778C11.9621 23.1639 12.0694 23.0569 12.2573 23.0569H15.8008C15.1565 21.1848 14.8344 19.6737 14.8344 18.5236C14.8344 14.191 17.3577 11.0886 22.4044 9.21643C23.7467 9.00248 24.6594 8.89548 25.1426 8.89548ZM20.1495 18.8847C20.1495 21.6662 21.8139 23.2709 25.1426 23.6988C28.3639 23.2174 29.9745 21.6127 29.9745 18.8847V18.5236C29.9745 15.7422 28.3102 14.1375 24.9815 13.7096C22.5387 13.7096 20.928 15.1003 20.1495 17.8817V18.8847ZM43.1662 0.270264L43.3271 0.591203V19.2056C43.8104 21.7731 45.0988 23.0569 47.1926 23.0569H49.2868C49.5013 23.0836 49.6089 23.1906 49.6089 23.3778V27.55C49.6089 27.764 49.5013 27.871 49.2868 27.871H47.8372C43.1126 27.871 40.0521 25.5174 38.6563 20.8103C38.549 19.901 38.4953 19.1522 38.4953 18.5638V5.72621C38.4953 3.74709 40.0521 1.92844 43.1662 0.270264ZM58.1816 1.7546C58.799 1.7546 59.3759 1.98194 59.9129 2.4366C60.3962 2.89126 60.6375 3.42616 60.6375 4.04129C60.6375 4.73667 60.3962 5.29831 59.9129 5.72621C59.4027 6.20764 58.8258 6.44834 58.1816 6.44834C57.4566 6.44834 56.8796 6.20764 56.4499 5.72621C55.9669 5.29831 55.7252 4.73667 55.7252 4.04129C55.7252 3.42616 55.9669 2.85114 56.4499 2.31625C56.96 1.94182 57.537 1.7546 58.1816 1.7546ZM58.4632 8.13325L58.6245 8.4542V18.5638C58.6245 23.2709 56.2622 26.3198 51.5376 27.7105C50.6249 27.8175 49.8731 27.871 49.2826 27.871H48.3163C48.1014 27.871 47.9942 27.764 47.9942 27.55V23.3778C48.021 23.1639 48.1282 23.0569 48.3163 23.0569H49.9268C52.5039 22.5755 53.7923 21.2917 53.7923 19.2056V13.5892C53.7923 11.6101 55.3495 9.79142 58.4632 8.13325ZM51.7389 1.7546C52.3563 1.7546 52.9332 1.98194 53.4702 2.4366C53.9535 2.89126 54.1952 3.42616 54.1952 4.04129C54.1952 4.73667 53.9535 5.29831 53.4702 5.72621C52.96 6.20764 52.3831 6.44834 51.7389 6.44834C51.0139 6.44834 50.4369 6.20764 50.0072 5.72621C49.5242 5.29831 49.2826 4.73667 49.2826 4.04129C49.2826 3.42616 49.5242 2.85114 50.0072 2.31625C50.5173 1.94182 51.0947 1.7546 51.7389 1.7546Z" fill="white"/>
</svg>
